HIERARCHY
ROOT root
{
	OFFSET 0.000000 0.000000 0.000000
	CHANNELS 6 Xposition Yposition Zposition Zrotation Yrotation Xrotation
	JOINT lhip
	{
		OFFSET 0.058581 -0.082280 -0.017664
		CHANNELS 3 Zrotation Yrotation Xrotation
		JOINT lknee
		{
			OFFSET 0.043451 -0.386469 0.008037
			CHANNELS 3 Zrotation Yrotation Xrotation
			JOINT lankle
			{
				OFFSET -0.014790 -0.426874 -0.037428
				CHANNELS 3 Zrotation Yrotation Xrotation
				JOINT ltoe
				{
					OFFSET 0.041054 -0.060286 0.122042
					CHANNELS 3 Zrotation Yrotation Xrotation
					End Site
					{
						OFFSET 0.000000 0.000000 0.000000
					}
				}
			}
		}
	}
	JOINT rhip
	{
		OFFSET -0.060310 -0.090513 -0.013543
		CHANNELS 3 Zrotation Yrotation Xrotation
		JOINT rknee
		{
			OFFSET -0.043257 -0.383688 -0.004843
			CHANNELS 3 Zrotation Yrotation Xrotation
			JOINT rankle
			{
				OFFSET 0.019056 -0.420046 -0.034562
				CHANNELS 3 Zrotation Yrotation Xrotation
				JOINT rtoe
				{
					OFFSET -0.034840 -0.062106 0.130323
					CHANNELS 3 Zrotation Yrotation Xrotation
					End Site
					{
						OFFSET 0.000000 0.000000 0.000000
					}
				}
			}
		}
	}
	JOINT lowerback
	{
		OFFSET 0.004439 0.124404 -0.038385
		CHANNELS 3 Zrotation Yrotation Xrotation
		JOINT upperback
		{
			OFFSET 0.004488 0.137956 0.026820
			CHANNELS 3 Zrotation Yrotation Xrotation
			JOINT chest
			{
				OFFSET -0.002265 0.056032 0.002855
				CHANNELS 3 Zrotation Yrotation Xrotation
				JOINT lowerneck
				{
					OFFSET -0.013390 0.211636 -0.033468
					CHANNELS 3 Zrotation Yrotation Xrotation
					JOINT upperneck
					{
						OFFSET 0.010113 0.088937 0.050410
						CHANNELS 3 Zrotation Yrotation Xrotation
						End Site
						{
							OFFSET 0.000000 0.000000 0.000000
						}
					}
				}
				JOINT lclavicle
				{
					OFFSET 0.071702 0.114000 -0.018898
					CHANNELS 3 Zrotation Yrotation Xrotation
					JOINT lshoulder
					{
						OFFSET 0.122921 0.045205 -0.019046
						CHANNELS 3 Zrotation Yrotation Xrotation
						JOINT lelbow
						{
							OFFSET 0.255332 -0.015649 -0.022946
							CHANNELS 3 Zrotation Yrotation Xrotation
							JOINT lwrist
							{
								OFFSET 0.265709 0.012698 -0.007375
								CHANNELS 3 Zrotation Yrotation Xrotation
								End Site
								{
									OFFSET 0.000000 0.000000 0.000000
								}
							}
						}
					}
				}
				JOINT rclavicle
				{
					OFFSET -0.082954 0.112472 -0.023707
					CHANNELS 3 Zrotation Yrotation Xrotation
					JOINT rshoulder
					{
						OFFSET -0.113228 0.046853 -0.008472
						CHANNELS 3 Zrotation Yrotation Xrotation
						JOINT relbow
						{
							OFFSET -0.260127 -0.014369 -0.031269
							CHANNELS 3 Zrotation Yrotation Xrotation
							JOINT rwrist
							{
								OFFSET -0.269108 0.006794 -0.006027
								CHANNELS 3 Zrotation Yrotation Xrotation
								End Site
								{
									OFFSET 0.000000 0.000000 0.000000
								}
							}
						}
					}
				}
			}
		}
	}
}
MOTION
Frames: 7
Frame Time: 0.033333
1.071962 0.756015 0.991874 -87.560380 4.642318 87.764546 3.905717 0.103614 3.178769 -3.003733 -12.156047 2.659826 4.223965 8.157627 -15.401595 0.000000 -0.000000 0.000000 1.785722 -1.267250 -0.000043 4.117638 2.649337 7.832522 4.002262 -3.429602 -9.378490 0.000000 -0.000000 0.000000 -0.493257 0.797224 8.687691 2.123665 -3.144009 3.484389 1.109620 -2.476406 4.345206 4.272427 -0.382781 -8.858923 4.408330 -7.310884 -2.764510 -28.573181 0.579890 0.446526 -59.616398 -7.921266 9.272762 8.794586 -20.586572 5.125460 -3.406492 -1.914035 -4.892623 26.808893 1.022205 -2.617849 59.509110 3.790693 12.461130 -13.543875 20.630760 -3.242216 6.132417 -0.687574 -5.576147 
1.071228 0.755980 0.991885 -87.335369 4.655580 87.569743 3.913398 0.228462 3.386630 -2.963406 -12.243868 2.730312 4.047267 7.928548 -15.490583 0.000000 -0.000000 0.000000 1.942786 -1.149466 0.248754 3.891038 2.499358 7.792064 3.854882 -3.549695 -9.625802 0.000000 -0.000000 0.000000 -0.564611 0.712395 8.889157 2.128377 -3.211091 3.330321 1.207318 -2.492997 4.299986 4.282581 -0.191897 -8.924452 4.174229 -7.069895 -2.486287 -28.449269 0.535373 0.343480 -59.429610 -8.230348 9.418763 8.606713 -22.037455 5.540303 -3.029430 -2.008824 -4.481769 26.685755 1.086878 -2.737563 59.494541 3.707982 12.395730 -13.369626 21.118051 -3.296737 5.878554 -0.638334 -5.551193 
1.070587 0.755956 0.991888 -87.298576 4.635303 87.569046 3.907374 0.132923 3.479624 -2.956755 -12.224011 2.609182 4.079360 7.929900 -15.626012 0.000000 -0.000000 0.000000 2.022331 -0.939695 0.171547 3.807157 2.588753 7.997107 3.855109 -3.741039 -9.819878 0.000000 -0.000000 0.000000 -0.617344 0.771342 8.852581 2.174026 -3.162572 3.219293 1.217445 -2.523676 4.232767 4.249815 -0.036088 -8.875463 4.030448 -6.982041 -2.162563 -28.130982 0.353018 0.418515 -59.376443 -8.472659 9.665745 8.567777 -22.975280 5.902233 -2.798880 -2.333480 -4.455636 26.486899 1.053497 -2.748413 59.551171 3.703148 12.428887 -13.299042 21.159923 -3.185351 5.702283 -0.492774 -5.638397 
1.070170 0.755999 0.991931 -86.812967 4.558394 87.712560 3.834597 -0.023896 3.276934 -2.971634 -12.466482 2.685702 3.973125 7.902642 -15.629032 0.000000 -0.000000 0.000000 2.098823 -0.633094 0.343231 3.617894 2.500895 7.559118 3.869988 -4.447559 -9.789156 0.000000 -0.000000 0.000000 -0.685605 0.624674 8.839425 2.193645 -3.333807 3.174168 1.282276 -2.581655 4.162841 4.392331 -0.087879 -9.572698 3.868517 -7.022961 -2.030363 -27.772161 0.127501 0.431514 -58.891797 -8.590893 9.726664 8.238964 -23.783158 6.333077 -2.903233 -2.401617 -4.543004 26.153260 1.022328 -2.750250 59.571374 3.463097 12.488496 -13.258431 21.372196 -2.862089 5.845520 -0.505583 -5.556519 
1.069843 0.756197 0.992066 -86.709063 4.520484 87.742656 3.822596 -0.058227 3.250772 -2.952415 -12.501823 2.686544 3.930156 7.820773 -15.638111 0.000000 -0.000000 0.000000 2.138908 -0.555510 0.456559 3.537939 2.613722 7.350720 3.798707 -4.727401 -9.764146 0.000000 -0.000000 0.000000 -0.734777 0.644673 8.860431 2.222302 -3.409384 3.211471 1.314110 -2.625363 4.109147 4.788962 -0.474358 -10.158576 4.070909 -7.314150 -2.415617 -27.570978 -0.044556 0.606845 -58.450694 -8.614197 9.578695 8.076338 -23.747178 6.522916 -3.268853 -2.691456 -4.586461 25.858761 1.140036 -2.763642 59.633934 3.461147 12.273321 -13.049708 20.729961 -2.648330 5.923562 -0.290698 -5.247917 
1.069135 0.756663 0.992088 -86.569724 4.499258 87.811747 3.880080 0.058605 3.254061 -3.027936 -12.577758 2.610548 3.916491 7.821365 -15.585379 0.000000 -0.000000 0.000000 2.183495 -0.686103 0.655227 3.555995 3.030359 6.957153 3.725998 -5.158123 -9.722103 0.000000 -0.000000 0.000000 -0.807271 0.710800 8.921395 2.231707 -3.531178 3.325076 1.366013 -2.690750 4.092118 4.292383 -0.282885 -9.776275 3.786290 -6.785917 -2.087412 -27.082288 -0.206646 0.942454 -57.610968 -8.291133 9.436014 7.358645 -23.988257 7.166744 -2.861293 -2.630967 -4.580103 25.561860 0.917128 -2.269456 58.671360 2.474480 12.362500 -11.937327 22.289744 -1.674272 5.816458 -0.330817 -5.396114 
1.068209 0.757456 0.992178 -86.624211 4.414329 88.206552 3.847016 0.121422 2.886355 -3.004427 -12.735379 2.610121 3.840269 7.904492 -15.661850 0.000000 -0.000000 0.000000 2.257734 -0.523128 0.337398 3.485039 3.405657 6.855703 3.716868 -5.677004 -9.825475 0.000000 -0.000000 0.000000 -0.958602 0.714973 9.380442 2.142688 -3.470565 2.304018 1.416774 -2.663856 4.098879 4.319370 -0.569576 -9.721793 3.935547 -6.863591 -1.997901 -26.434438 0.414259 1.320352 -56.693226 -7.453816 9.341684 6.374188 -24.160595 8.576459 -2.643023 -2.809881 -4.385809 25.241027 0.359780 -1.905854 58.079065 1.405932 12.480251 -11.082577 22.596892 -0.244325 5.625812 -0.410079 -5.061738 
